<?xml version="1.0" encoding="utf-8"?>
<!-- Generator: Adobe Illustrator 23.0.3, SVG Export Plug-In . SVG Version: 6.00 Build 0)  -->
<svg version="1.1" id="WaFd_logo" xmlns="http://www.w3.org/2000/svg" xmlns:xlink="http://www.w3.org/1999/xlink" x="0px" y="0px"
	 viewBox="0 0 712.2662 164.0162" style="enable-background:new 0 0 712.2662 164.0162;" xml:space="preserve">
<style type="text/css">
	.st0{clip-path:url(#SVGID_2_);}
	.st1{clip-path:url(#SVGID_4_);fill:#FFFFFF;}
	.st2{clip-path:url(#SVGID_6_);fill:#009639;}
	.st3{clip-path:url(#SVGID_6_);}
	.st4{fill:#505759;}
	.st5{fill:#009639;}
	.st6{clip-path:url(#SVGID_8_);fill:#009639;}
	.st7{clip-path:url(#SVGID_8_);}
	.st8{fill:#FFFFFF;}
	.st9{clip-path:url(#SVGID_10_);}
	.st10{clip-path:url(#SVGID_12_);}
	.st11{clip-path:url(#SVGID_14_);}
</style>
<g>
	<defs>
		<rect id="SVGID_5_" x="0" y="0" width="712.2662" height="164.0162"/>
	</defs>
	<clipPath id="SVGID_2_">
		<use xlink:href="#SVGID_5_"  style="overflow:visible;"/>
	</clipPath>
	<path id="WaFd_symbol" style="clip-path:url(#SVGID_2_);fill:#009639;" d="M107.8968,140.1757
		c0.0819-3.4409-0.0819-7.0457-0.4916-10.0769c-8.3565-3.1951-15.0744-6.636-21.1369-10.1589
		c-2.2939-1.3108-3.1951-1.6385-4.2602-1.6385c-1.147,0-2.212,0.4916-4.1782,1.6385c-13.354,7.7011-36.7849,16.7949-50.6304,17.0406
		c-0.0819-2.8674,0.3277-5.3252,0.6554-7.6191c-2.5397,0.1638-6.0625,0.1638-9.4215-0.0819
		c-0.4916,1.8843-0.8193,4.6698-0.8193,7.2914c0,5.571,3.1132,9.8311,10.3227,9.8311c13.8455,0,39.7342-9.8311,54.0713-17.778
		C90.5284,133.3758,99.2126,137.3083,107.8968,140.1757z M125.6748,113.3858c-3.8505-0.8193-8.0288-1.7205-10.5685-1.7205
		c-2.212,0-3.4409,1.2289-3.4409,3.4409c0,3.5228,2.3759,13.1901,2.3759,23.8405c0,6.8818-0.4916,12.1251-1.3927,15.566
		c-7.2095-1.065-16.8768-4.8336-26.2983-10.4046c-2.3759-1.3927-3.359-1.7204-4.3421-1.7204s-1.9662,0.3277-4.2602,1.6385
		c-9.1757,5.2433-18.9249,9.2577-26.1344,10.4866c-0.5735-1.8843-1.065-4.3421-1.3927-6.5541
		c-3.1132,1.147-6.636,2.1301-9.0938,2.6216c0.9831,8.7661,3.1132,13.4359,9.4215,13.4359c6.4722,0,21.055-5.3252,31.4597-11.3058
		c10.4046,5.9806,24.9875,11.3058,30.8862,11.3058c4.9156,0,7.2095-1.8024,8.6022-5.7348c1.6385-4.5879,2.212-10.6504,2.212-17.778
		c0-5.4071-0.6554-12.1251-1.8024-18.7611c2.5397,0.4916,5.0794,0.8193,6.7999,1.147
		C128.1325,120.3495,126.9856,116.499,125.6748,113.3858z M140.1757,56.1194c-3.4409-0.0819-7.0457,0.0819-10.0769,0.4916
		c-3.1951,8.3565-6.636,15.0744-10.1589,21.137c-1.3108,2.2939-1.6385,3.1951-1.6385,4.2602c0,1.147,0.4916,2.212,1.6385,4.1782
		c7.7011,13.354,16.7949,36.7849,17.0406,50.6304c-2.8674,0.0819-5.3252-0.3277-7.6191-0.6554
		c0.1638,2.5397,0.1638,6.0625-0.0819,9.4215c1.8843,0.4916,4.6698,0.8193,7.2914,0.8193c5.571,0,9.8311-3.1132,9.8311-10.3227
		c0-13.8455-9.8311-39.7342-17.778-54.0713C133.3758,73.4878,137.3083,64.8036,140.1757,56.1194z M42.2739,121.9062
		c-0.4916,2.5397-0.8193,5.0794-1.147,6.7999c2.5397-0.5735,6.3902-1.7205,9.5034-3.0313
		c0.8193-3.8505,1.7205-8.0288,1.7205-10.5685c0-2.212-1.2289-3.4409-3.4409-3.4409c-3.5228,0-13.1901,2.3759-23.8405,2.3759
		c-6.8818,0-12.1251-0.4916-15.566-1.3927c1.065-7.2095,4.8336-16.8768,10.4046-26.2983c1.3927-2.3759,1.7204-3.359,1.7204-4.3421
		s-0.3277-1.9662-1.6385-4.2602c-5.2433-9.1757-9.2577-18.9249-10.4866-26.1344c1.8843-0.5735,4.3421-1.065,6.5541-1.3927
		c-1.147-3.1132-2.1301-6.636-2.6216-9.0938C4.6698,42.1101,0,44.2401,0,50.5485c0,6.4722,5.3252,21.055,11.3058,31.4597
		C5.3252,92.4127,0,106.9956,0,112.8943c0,4.9156,1.8024,7.2095,5.7348,8.6022c4.5879,1.6385,10.6504,2.212,17.778,2.212
		C28.9199,123.7085,35.6379,123.0531,42.2739,121.9062z M164.0162,51.1219c0-4.9156-1.8024-7.2095-5.7348-8.6022
		c-4.5879-1.6385-10.6504-2.212-17.778-2.212c-5.4071,0-12.1251,0.6554-18.7611,1.8024c0.4916-2.5397,0.8193-5.0794,1.147-6.7999
		c-2.5397,0.5735-6.3902,1.7205-9.5034,3.0313c-0.8193,3.8505-1.7205,8.0288-1.7205,10.5685c0,2.212,1.2289,3.4409,3.4409,3.4409
		c3.5228,0,13.1901-2.3759,23.8405-2.3759c6.8818,0,12.1251,0.4916,15.566,1.3927c-1.065,7.2095-4.8336,16.8768-10.4046,26.2983
		c-1.3927,2.3759-1.7204,3.359-1.7204,4.3421s0.3277,1.9662,1.6385,4.2602c5.2433,9.1757,9.2577,18.9249,10.4866,26.1344
		c-1.8843,0.5735-4.3421,1.065-6.5541,1.3927c1.147,3.1132,2.1301,6.636,2.6216,9.0938c8.7661-0.9831,13.4359-3.1132,13.4359-9.4215
		c0-6.4722-5.3252-21.055-11.3058-31.4596C158.691,71.6035,164.0162,57.0206,164.0162,51.1219z M56.1194,23.8405
		c-0.0819,3.4409,0.0819,7.0457,0.4916,10.0769c8.3565,3.1951,15.0744,6.636,21.137,10.1588
		c2.2939,1.3108,3.1951,1.6385,4.2602,1.6385c1.147,0,2.212-0.4916,4.1782-1.6385c13.354-7.7011,36.7849-16.7949,50.6304-17.0406
		c0.0819,2.8674-0.3277,5.3252-0.6554,7.6191c2.5397-0.1639,6.0625-0.1639,9.4215,0.0819c0.4916-1.8843,0.8193-4.6698,0.8193-7.2914
		c0-5.571-3.1132-9.8311-10.3227-9.8311c-13.8455,0-39.7342,9.8311-54.0713,17.778C73.4878,30.6404,64.8036,26.7079,56.1194,23.8405
		z M23.8405,107.8968c3.4409,0.0819,7.0457-0.0819,10.0769-0.4916c3.1951-8.3565,6.636-15.0744,10.1588-21.1369
		c1.3108-2.2939,1.6385-3.1951,1.6385-4.2602c0-1.147-0.4916-2.212-1.6385-4.1782c-7.7011-13.354-16.7949-36.7849-17.0406-50.6304
		c2.8674-0.0819,5.3252,0.3277,7.6191,0.6554c-0.1639-2.5397-0.1639-6.0625,0.0819-9.4215
		c-1.8843-0.4916-4.6698-0.8193-7.2914-0.8193c-5.571,0-9.8311,3.1132-9.8311,10.3227c0,13.8455,9.8311,39.7342,17.778,54.0713
		C30.6404,90.5284,26.7079,99.2126,23.8405,107.8968z M38.3414,50.6304c3.8505,0.8193,8.0288,1.7205,10.5685,1.7205
		c2.212,0,3.4409-1.2289,3.4409-3.4409c0-3.5228-2.3759-13.1901-2.3759-23.8405c0-6.8818,0.4916-12.1251,1.3927-15.566
		c7.2095,1.065,16.8768,4.8336,26.2983,10.4046c2.3759,1.3927,3.359,1.7204,4.3421,1.7204s1.9662-0.3277,4.2602-1.6385
		c9.1757-5.2433,18.9249-9.2577,26.1344-10.4866c0.5735,1.8843,1.065,4.3421,1.3927,6.5541c3.1132-1.147,6.636-2.1301,9.0938-2.6216
		C121.9062,4.6698,119.7761,0,113.4678,0c-6.4722,0-21.055,5.3252-31.4596,11.3058C71.6035,5.3252,57.0206,0,51.1219,0
		c-4.9156,0-7.2095,1.8024-8.6022,5.7348c-1.6385,4.5879-2.212,10.6504-2.212,17.778c0,5.4071,0.6554,12.1251,1.8024,18.7611
		c-2.5397-0.4916-5.0794-0.8193-6.7999-1.147C35.8837,43.6667,37.0306,47.5172,38.3414,50.6304z"/>
	<g id="WaFd_Bank" class="st0">
		<path id="Bank" class="st4" d="M632.0604,61.035c-8.6841,0-16.1395,3.8505-20.2357,6.2264l-0.082-4.8336h-7.2095v62.1h7.701
			V73.9793c6.7999-4.1782,12.9443-6.1445,19.0888-6.1445c9.3396,0,12.6985,4.8336,12.6985,16.1395v40.5535h7.701V82.4177
			C651.7227,68.7361,646.1517,61.035,632.0604,61.035z M571.3531,61.035c-8.4384,0-15.7298,2.6216-20.9731,6.4722l3.1951,5.3253
			c4.6697-3.0313,10.6504-4.9975,16.8768-4.9975c11.142,0,14.6648,4.2601,14.6648,15.7298v3.5228h-6.7999
			c-20.6454,0-31.7054,7.2095-31.7054,20.8093c0,11.3058,7.8649,18.0237,20.0719,18.0237c6.4722,0,12.6166-2.1301,18.843-5.8168
			l0.0819,4.424h7.2095V82.2539C592.8178,68.4084,586.6733,61.035,571.3531,61.035z M585.1168,113.7136
			c-5.8168,3.5228-11.6335,5.4071-17.3683,5.4071c-8.0288,0-13.0263-4.1782-13.0263-11.5516
			c0-9.2577,8.5203-14.1733,24.2502-14.1733h6.1445V113.7136z M679.5776,91.02l30.6404-28.5922h-10.0769l-29.0838,27.9368V39.4884
			h-7.6191v85.0394h7.6191V92.0031l31.132,32.5247h10.0769L679.5776,91.02z M522.7709,80.6973
			c7.9468-2.2939,13.5997-9.1757,13.5997-19.5803c0-13.8455-9.0119-21.6285-26.3802-21.6285h-23.7585v85.0394h22.9393
			c19.2526,0,29.985-8.6841,29.985-23.7585C539.1562,89.4634,533.3394,82.4996,522.7709,80.6973z M494.4245,46.3702h12.1251
			c15.2383,0,21.4647,4.5878,21.4647,15.484c0,10.4866-6.8818,16.1395-21.3828,16.1395h-12.207V46.3702z M507.7784,117.646h-13.3539
			V84.7117h14.6647c14.5829,0,21.7924,4.9156,21.7924,16.3033C530.8816,111.6654,523.3444,117.646,507.7784,117.646z"/>
		<path id="WaFd" class="st5" d="M318.1193,61.035c-9.913,0-17.8599,2.7855-23.8405,6.7999l5.7349,10.9781
			c4.5059-2.8674,10.5685-4.424,16.2214-4.424c6.5541,0,9.8311,2.9493,9.8311,8.2745v1.7205h-4.5878
			c-20.3177,0-31.6235,7.5372-31.6235,21.9562c0,11.3878,7.701,19.5804,19.9081,19.5804c6.7999,0,12.4528-1.9662,17.3683-5.6529
			l0.1638,4.2601h15.1564V83.6466C342.4514,68.4903,334.5046,61.035,318.1193,61.035z M326.0662,108.8799
			c-3.6047,2.6216-7.4553,3.9324-11.3058,3.9324c-4.9975,0-8.1926-2.9493-8.1926-7.6191c0-6.1445,5.3252-9.0938,16.8768-9.0938
			h2.6216V108.8799z M446.3338,39.4884v24.414c-4.0144-1.9662-7.9468-2.8674-12.6166-2.8674
			c-15.484,0-28.4283,11.5516-28.4283,32.7705c0,18.1876,10.0769,32.1151,26.626,32.1151c6.1445,0,11.2239-1.7205,16.3853-5.7348
			l0.0819,4.342h14.8286V39.4884H446.3338z M446.3338,107.8148c-3.3589,2.3759-6.5541,3.4409-10.1588,3.4409
			c-7.6191,0-13.5178-6.0625-13.5178-17.9418c0-11.8793,5.6529-17.5322,13.9274-17.5322c3.4409,0,6.3083,0.7373,9.7492,2.4578
			V107.8148z M372.5183,54.1532h32.9343V39.4884h-50.8762v85.0394h17.9418V88.6441h26.626V74.0613h-26.626V54.1532z
			 M276.1731,39.4884l-12.207,61.1169l-14.0094-61.1169h-19.0069l-14.9106,61.4446l-11.9612-61.4446h-18.4334l20.2358,85.0394
			h18.9249l15.4841-62.9193l13.9274,62.9193h18.925l20.8912-85.0394H276.1731z"/>
	</g>
</g>
</svg>
